<?xml version="1.0" standalone="no"?>
<!DOCTYPE svg PUBLIC "-//W3C//DTD SVG 20010904//EN"
 "http://www.w3.org/TR/2001/REC-SVG-20010904/DTD/svg10.dtd">
<svg version="1.0" xmlns="http://www.w3.org/2000/svg"
 width="343.000000pt" height="343.000000pt" viewBox="0 0 343.000000 343.000000"
 preserveAspectRatio="xMidYMid meet">
<metadata>
Created by potrace 1.14, written by Peter Selinger 2001-2017
</metadata>
<g transform="translate(0.000000,343.000000) scale(0.100000,-0.100000)"
fill="#000000" stroke="none">
<path d="M1313 3270 c-39 -5 -121 -21 -182 -35 -60 -14 -118 -25 -129 -25 -11
0 -25 -7 -32 -15 -6 -8 -40 -30 -74 -49 -45 -25 -96 -71 -187 -168 -68 -73
-141 -156 -162 -184 -20 -28 -61 -70 -90 -92 -29 -23 -62 -54 -73 -69 -33 -45
-74 -183 -85 -285 -14 -140 -30 -219 -51 -261 -14 -29 -19 -61 -20 -150 -2
-133 15 -213 76 -367 52 -132 126 -240 239 -351 48 -48 87 -91 87 -97 0 -6 -9
-14 -20 -17 -31 -10 -50 -34 -50 -65 0 -42 142 -315 197 -379 59 -68 118 -111
154 -111 36 0 81 39 104 89 10 23 24 41 31 41 15 0 195 -177 221 -216 8 -13
21 -24 29 -24 7 0 44 -26 82 -59 110 -94 164 -121 377 -186 154 -46 282 -61
514 -57 l194 2 66 49 c103 77 152 132 162 183 4 23 8 128 9 231 0 132 5 208
15 256 l16 67 87 28 c48 16 205 69 350 118 l262 90 0 123 0 122 -357 -123
c-197 -68 -364 -124 -370 -124 -8 0 -13 13 -13 33 0 57 -39 195 -75 267 -19
38 -35 78 -35 88 0 10 18 35 39 54 78 69 83 171 21 388 -31 109 -37 156 -20
162 6 2 3 24 -7 57 l-18 54 -95 -7 c-52 -4 -114 -11 -138 -15 -41 -8 -44 -7
-53 18 -6 14 -19 35 -29 46 -41 45 -70 173 -70 313 0 51 -8 110 -20 155 -19
72 -20 72 -152 202 -125 123 -138 133 -216 164 -45 18 -101 47 -123 63 -23 16
-60 38 -84 48 -53 23 -200 32 -302 20z"/>
</g>
</svg>
